<svg version="1.1" viewBox="0.0 0.0 960.0 720.0" fill="none" stroke="none" stroke-linecap="square" stroke-miterlimit="10" xmlns:xlink="http://www.w3.org/1999/xlink" xmlns="http://www.w3.org/2000/svg"><clipPath id="p.0"><path d="m0 0l960.0 0l0 720.0l-960.0 0l0 -720.0z" clip-rule="nonzero"/></clipPath><g clip-path="url(#p.0)"><path fill="#000000" fill-opacity="0.0" d="m0 0l960.0 0l0 720.0l-960.0 0z" fill-rule="evenodd"/><path fill="#666666" d="m446.0 97.67716l0 0c0 -5.1575546 4.251526 -9.338577 9.496063 -9.338577l0 0c2.5185242 0 4.9338684 0.9838791 6.7147217 2.7352066c1.7808533 1.7513199 2.7813416 4.126625 2.7813416 6.6033707l0 0c0 5.1575623 -4.251526 9.338585 -9.496063 9.338585l0 0c-5.2445374 0 -9.496063 -4.1810226 -9.496063 -9.338585z" fill-rule="evenodd"/><path stroke="#000000" stroke-width="1.0" stroke-linejoin="round" stroke-linecap="butt" d="m446.0 97.67716l0 0c0 -5.1575546 4.251526 -9.338577 9.496063 -9.338577l0 0c2.5185242 0 4.9338684 0.9838791 6.7147217 2.7352066c1.7808533 1.7513199 2.7813416 4.126625 2.7813416 6.6033707l0 0c0 5.1575623 -4.251526 9.338585 -9.496063 9.338585l0 0c-5.2445374 0 -9.496063 -4.1810226 -9.496063 -9.338585z" fill-rule="evenodd"/><path fill="#9900ff" d="m446.0 153.17848l0 0c0 -5.1575623 4.251526 -9.338593 9.496063 -9.338593l0 0c2.5185242 0 4.9338684 0.9838867 6.7147217 2.7352142c1.7808533 1.7513275 2.7813416 4.1266327 2.7813416 6.6033783l0 0c0 5.157547 -4.251526 9.338577 -9.496063 9.338577l0 0c-5.2445374 0 -9.496063 -4.1810303 -9.496063 -9.338577z" fill-rule="evenodd"/><path stroke="#000000" stroke-width="1.0" stroke-linejoin="round" stroke-linecap="butt" d="m446.0 153.17848l0 0c0 -5.1575623 4.251526 -9.338593 9.496063 -9.338593l0 0c2.5185242 0 4.9338684 0.9838867 6.7147217 2.7352142c1.7808533 1.7513275 2.7813416 4.1266327 2.7813416 6.6033783l0 0c0 5.157547 -4.251526 9.338577 -9.496063 9.338577l0 0c-5.2445374 0 -9.496063 -4.1810303 -9.496063 -9.338577z" fill-rule="evenodd"/><path fill="#ff00ff" d="m446.0 208.6798l0 0c0 -5.1575623 4.251526 -9.338593 9.496063 -9.338593l0 0c2.5185242 0 4.9338684 0.9838867 6.7147217 2.7352142c1.7808533 1.7513275 2.7813416 4.1266327 2.7813416 6.6033783l0 0c0 5.157547 -4.251526 9.338577 -9.496063 9.338577l0 0c-5.2445374 0 -9.496063 -4.1810303 -9.496063 -9.338577z" fill-rule="evenodd"/><path stroke="#000000" stroke-width="1.0" stroke-linejoin="round" stroke-linecap="butt" d="m446.0 208.6798l0 0c0 -5.1575623 4.251526 -9.338593 9.496063 -9.338593l0 0c2.5185242 0 4.9338684 0.9838867 6.7147217 2.7352142c1.7808533 1.7513275 2.7813416 4.1266327 2.7813416 6.6033783l0 0c0 5.157547 -4.251526 9.338577 -9.496063 9.338577l0 0c-5.2445374 0 -9.496063 -4.1810303 -9.496063 -9.338577z" fill-rule="evenodd"/><path fill="#ffff00" d="m511.0 153.17848l0 0c0 -5.1575623 4.251526 -9.338593 9.496033 -9.338593l0 0c2.5185547 0 4.933899 0.9838867 6.7147827 2.7352142c1.7808228 1.7513275 2.781311 4.1266327 2.781311 6.6033783l0 0c0 5.157547 -4.251526 9.338577 -9.496094 9.338577l0 0c-5.244507 0 -9.496033 -4.1810303 -9.496033 -9.338577z" fill-rule="evenodd"/><path stroke="#000000" stroke-width="1.0" stroke-linejoin="round" stroke-linecap="butt" d="m511.0 153.17848l0 0c0 -5.1575623 4.251526 -9.338593 9.496033 -9.338593l0 0c2.5185547 0 4.933899 0.9838867 6.7147827 2.7352142c1.7808228 1.7513275 2.781311 4.1266327 2.781311 6.6033783l0 0c0 5.157547 -4.251526 9.338577 -9.496094 9.338577l0 0c-5.244507 0 -9.496033 -4.1810303 -9.496033 -9.338577z" fill-rule="evenodd"/><path fill="#00ff00" d="m381.0 153.17848l0 0c0 -5.1575623 4.251526 -9.338593 9.496063 -9.338593l0 0c2.5185242 0 4.9338684 0.9838867 6.7147217 2.7352142c1.7808533 1.7513275 2.7813416 4.1266327 2.7813416 6.6033783l0 0c0 5.157547 -4.251526 9.338577 -9.496063 9.338577l0 0c-5.2445374 0 -9.496063 -4.1810303 -9.496063 -9.338577z" fill-rule="evenodd"/><path stroke="#000000" stroke-width="1.0" stroke-linejoin="round" stroke-linecap="butt" d="m381.0 153.17848l0 0c0 -5.1575623 4.251526 -9.338593 9.496063 -9.338593l0 0c2.5185242 0 4.9338684 0.9838867 6.7147217 2.7352142c1.7808533 1.7513275 2.7813416 4.1266327 2.7813416 6.6033783l0 0c0 5.157547 -4.251526 9.338577 -9.496063 9.338577l0 0c-5.2445374 0 -9.496063 -4.1810303 -9.496063 -9.338577z" fill-rule="evenodd"/><path fill="#00ffff" d="m354.00787 208.6798l0 0c0 -5.1575623 4.251526 -9.338593 9.496063 -9.338593l0 0c2.5185242 0 4.9338684 0.9838867 6.7147217 2.7352142c1.7808533 1.7513275 2.7813416 4.1266327 2.7813416 6.6033783l0 0c0 5.157547 -4.251526 9.338577 -9.496063 9.338577l0 0c-5.2445374 0 -9.496063 -4.1810303 -9.496063 -9.338577z" fill-rule="evenodd"/><path stroke="#000000" stroke-width="1.0" stroke-linejoin="round" stroke-linecap="butt" d="m354.00787 208.6798l0 0c0 -5.1575623 4.251526 -9.338593 9.496063 -9.338593l0 0c2.5185242 0 4.9338684 0.9838867 6.7147217 2.7352142c1.7808533 1.7513275 2.7813416 4.1266327 2.7813416 6.6033783l0 0c0 5.157547 -4.251526 9.338577 -9.496063 9.338577l0 0c-5.2445374 0 -9.496063 -4.1810303 -9.496063 -9.338577z" fill-rule="evenodd"/><path fill="#ff9900" d="m537.9921 208.6798l0 0c0 -5.1575623 4.251526 -9.338593 9.496033 -9.338593l0 0c2.5185547 0 4.933899 0.9838867 6.7147827 2.7352142c1.7808228 1.7513275 2.781311 4.1266327 2.781311 6.6033783l0 0c0 5.157547 -4.251526 9.338577 -9.496094 9.338577l0 0c-5.244507 0 -9.496033 -4.1810303 -9.496033 -9.338577z" fill-rule="evenodd"/><path stroke="#000000" stroke-width="1.0" stroke-linejoin="round" stroke-linecap="butt" d="m537.9921 208.6798l0 0c0 -5.1575623 4.251526 -9.338593 9.496033 -9.338593l0 0c2.5185547 0 4.933899 0.9838867 6.7147827 2.7352142c1.7808228 1.7513275 2.781311 4.1266327 2.781311 6.6033783l0 0c0 5.157547 -4.251526 9.338577 -9.496094 9.338577l0 0c-5.244507 0 -9.496033 -4.1810303 -9.496033 -9.338577z" fill-rule="evenodd"/><path fill="#00ff00" d="m399.99213 264.1811l0 0c0 -5.1575317 4.251526 -9.338577 9.496063 -9.338577l0 0c2.5185242 0 4.9338684 0.9838867 6.7147217 2.7352142c1.7808533 1.7513123 2.7813416 4.1266174 2.7813416 6.603363l0 0c0 5.1575623 -4.251526 9.338593 -9.496063 9.338593l0 0c-5.2445374 0 -9.496063 -4.1810303 -9.496063 -9.338593z" fill-rule="evenodd"/><path stroke="#000000" stroke-width="1.0" stroke-linejoin="round" stroke-linecap="butt" d="m399.99213 264.1811l0 0c0 -5.1575317 4.251526 -9.338577 9.496063 -9.338577l0 0c2.5185242 0 4.9338684 0.9838867 6.7147217 2.7352142c1.7808533 1.7513123 2.7813416 4.1266174 2.7813416 6.603363l0 0c0 5.1575623 -4.251526 9.338593 -9.496063 9.338593l0 0c-5.2445374 0 -9.496063 -4.1810303 -9.496063 -9.338593z" fill-rule="evenodd"/><path fill="#ffff00" d="m492.00787 264.1811l0 0c0 -5.1575317 4.251526 -9.338577 9.496063 -9.338577l0 0c2.5185242 0 4.9338684 0.9838867 6.7147217 2.7352142c1.7808533 1.7513123 2.7813416 4.1266174 2.7813416 6.603363l0 0c0 5.1575623 -4.251526 9.338593 -9.496063 9.338593l0 0c-5.2445374 0 -9.496063 -4.1810303 -9.496063 -9.338593z" fill-rule="evenodd"/><path stroke="#000000" stroke-width="1.0" stroke-linejoin="round" stroke-linecap="butt" d="m492.00787 264.1811l0 0c0 -5.1575317 4.251526 -9.338577 9.496063 -9.338577l0 0c2.5185242 0 4.9338684 0.9838867 6.7147217 2.7352142c1.7808533 1.7513123 2.7813416 4.1266174 2.7813416 6.603363l0 0c0 5.1575623 -4.251526 9.338593 -9.496063 9.338593l0 0c-5.2445374 0 -9.496063 -4.1810303 -9.496063 -9.338593z" fill-rule="evenodd"/><path fill="#ff9900" d="m511.0 315.6824l0 0c0 -5.1575317 4.251526 -9.338562 9.496033 -9.338562l0 0c2.5185547 0 4.933899 0.9838867 6.7147827 2.735199c1.7808228 1.7513123 2.781311 4.1266174 2.781311 6.603363l0 0c0 5.1575623 -4.251526 9.338593 -9.496094 9.338593l0 0c-5.244507 0 -9.496033 -4.1810303 -9.496033 -9.338593z" fill-rule="evenodd"/><path stroke="#000000" stroke-width="1.0" stroke-linejoin="round" stroke-linecap="butt" d="m511.0 315.6824l0 0c0 -5.1575317 4.251526 -9.338562 9.496033 -9.338562l0 0c2.5185547 0 4.933899 0.9838867 6.7147827 2.735199c1.7808228 1.7513123 2.781311 4.1266174 2.781311 6.603363l0 0c0 5.1575623 -4.251526 9.338593 -9.496094 9.338593l0 0c-5.244507 0 -9.496033 -4.1810303 -9.496033 -9.338593z" fill-rule="evenodd"/><path fill="#00ffff" d="m381.0 315.6824l0 0c0 -5.1575317 4.251526 -9.338562 9.496063 -9.338562l0 0c2.5185242 0 4.9338684 0.9838867 6.7147217 2.735199c1.7808533 1.7513123 2.7813416 4.1266174 2.7813416 6.603363l0 0c0 5.1575623 -4.251526 9.338593 -9.496063 9.338593l0 0c-5.2445374 0 -9.496063 -4.1810303 -9.496063 -9.338593z" fill-rule="evenodd"/><path stroke="#000000" stroke-width="1.0" stroke-linejoin="round" stroke-linecap="butt" d="m381.0 315.6824l0 0c0 -5.1575317 4.251526 -9.338562 9.496063 -9.338562l0 0c2.5185242 0 4.9338684 0.9838867 6.7147217 2.735199c1.7808533 1.7513123 2.7813416 4.1266174 2.7813416 6.603363l0 0c0 5.1575623 -4.251526 9.338593 -9.496063 9.338593l0 0c-5.2445374 0 -9.496063 -4.1810303 -9.496063 -9.338593z" fill-rule="evenodd"/><path fill="#ff0000" d="m529.9921 380.18372l0 0c0 -5.1575317 4.251526 -9.338562 9.496033 -9.338562l0 0c2.5185547 0 4.933899 0.9838867 6.7147827 2.735199c1.7808228 1.7513123 2.781311 4.1266174 2.781311 6.603363l0 0c0 5.1575623 -4.251526 9.338593 -9.496094 9.338593l0 0c-5.244507 0 -9.496033 -4.1810303 -9.496033 -9.338593z" fill-rule="evenodd"/><path stroke="#000000" stroke-width="1.0" stroke-linejoin="round" stroke-linecap="butt" d="m529.9921 380.18372l0 0c0 -5.1575317 4.251526 -9.338562 9.496033 -9.338562l0 0c2.5185547 0 4.933899 0.9838867 6.7147827 2.735199c1.7808228 1.7513123 2.781311 4.1266174 2.781311 6.603363l0 0c0 5.1575623 -4.251526 9.338593 -9.496094 9.338593l0 0c-5.244507 0 -9.496033 -4.1810303 -9.496033 -9.338593z" fill-rule="evenodd"/><path fill="#0000ff" d="m362.00787 380.18372l0 0c0 -5.1575317 4.251526 -9.338562 9.496063 -9.338562l0 0c2.5185242 0 4.9338684 0.9838867 6.7147217 2.735199c1.7808533 1.7513123 2.7813416 4.1266174 2.7813416 6.603363l0 0c0 5.1575623 -4.251526 9.338593 -9.496063 9.338593l0 0c-5.2445374 0 -9.496063 -4.1810303 -9.496063 -9.338593z" fill-rule="evenodd"/><path stroke="#000000" stroke-width="1.0" stroke-linejoin="round" stroke-linecap="butt" d="m362.00787 380.18372l0 0c0 -5.1575317 4.251526 -9.338562 9.496063 -9.338562l0 0c2.5185242 0 4.9338684 0.9838867 6.7147217 2.735199c1.7808533 1.7513123 2.7813416 4.1266174 2.7813416 6.603363l0 0c0 5.1575623 -4.251526 9.338593 -9.496063 9.338593l0 0c-5.2445374 0 -9.496063 -4.1810303 -9.496063 -9.338593z" fill-rule="evenodd"/><path fill="#ff0000" d="m556.98425 264.1811l0 0c0 -5.1575317 4.251526 -9.338577 9.496033 -9.338577l0 0c2.5185547 0 4.933899 0.9838867 6.7147827 2.7352142c1.7808228 1.7513123 2.781311 4.1266174 2.781311 6.603363l0 0c0 5.1575623 -4.251526 9.338593 -9.496094 9.338593l0 0c-5.244507 0 -9.496033 -4.1810303 -9.496033 -9.338593z" fill-rule="evenodd"/><path stroke="#000000" stroke-width="1.0" stroke-linejoin="round" stroke-linecap="butt" d="m556.98425 264.1811l0 0c0 -5.1575317 4.251526 -9.338577 9.496033 -9.338577l0 0c2.5185547 0 4.933899 0.9838867 6.7147827 2.7352142c1.7808228 1.7513123 2.781311 4.1266174 2.781311 6.603363l0 0c0 5.1575623 -4.251526 9.338593 -9.496094 9.338593l0 0c-5.244507 0 -9.496033 -4.1810303 -9.496033 -9.338593z" fill-rule="evenodd"/><path fill="#0000ff" d="m335.01575 264.1811l0 0c0 -5.1575317 4.251526 -9.338577 9.496063 -9.338577l0 0c2.5185242 0 4.9338684 0.9838867 6.7147217 2.7352142c1.7808533 1.7513123 2.7813416 4.1266174 2.7813416 6.603363l0 0c0 5.1575623 -4.251526 9.338593 -9.496063 9.338593l0 0c-5.2445374 0 -9.496063 -4.1810303 -9.496063 -9.338593z" fill-rule="evenodd"/><path stroke="#000000" stroke-width="1.0" stroke-linejoin="round" stroke-linecap="butt" d="m335.01575 264.1811l0 0c0 -5.1575317 4.251526 -9.338577 9.496063 -9.338577l0 0c2.5185242 0 4.9338684 0.9838867 6.7147217 2.7352142c1.7808533 1.7513123 2.7813416 4.1266174 2.7813416 6.603363l0 0c0 5.1575623 -4.251526 9.338593 -9.496063 9.338593l0 0c-5.2445374 0 -9.496063 -4.1810303 -9.496063 -9.338593z" fill-rule="evenodd"/><path fill="#000000" fill-opacity="0.0" d="m399.99213 153.17848l46.015747 0" fill-rule="evenodd"/><path stroke="#000000" stroke-width="3.0" stroke-linejoin="round" stroke-linecap="butt" d="m399.99213 153.17848l46.015747 0" fill-rule="evenodd"/><path fill="#000000" fill-opacity="0.0" d="m464.99213 153.17848l46.015747 0" fill-rule="evenodd"/><path stroke="#000000" stroke-width="3.0" stroke-linejoin="round" stroke-linecap="butt" d="m464.99213 153.17848l46.015747 0" fill-rule="evenodd"/><path fill="#000000" fill-opacity="0.0" d="m455.49606 143.83989l0 -36.818893" fill-rule="evenodd"/><path stroke="#000000" stroke-width="3.0" stroke-linejoin="round" stroke-linecap="butt" d="m455.49606 143.83989l0 -36.818893" fill-rule="evenodd"/><path fill="#000000" fill-opacity="0.0" d="m455.49606 162.51706l0 36.818893" fill-rule="evenodd"/><path stroke="#000000" stroke-width="3.0" stroke-linejoin="round" stroke-linecap="butt" d="m455.49606 162.51706l0 36.818893" fill-rule="evenodd"/><path fill="#000000" fill-opacity="0.0" d="m397.2108 159.78186l51.55905 42.29921" fill-rule="evenodd"/><path stroke="#000000" stroke-width="3.0" stroke-linejoin="round" stroke-linecap="butt" d="m397.2108 159.78186l51.55905 42.29921" fill-rule="evenodd"/><path fill="#000000" fill-opacity="0.0" d="m513.7813 159.78186l-51.55902 42.29921" fill-rule="evenodd"/><path stroke="#000000" stroke-width="3.0" stroke-linejoin="round" stroke-linecap="butt" d="m513.7813 159.78186l-51.55902 42.29921" fill-rule="evenodd"/><path fill="#000000" fill-opacity="0.0" d="m383.78134 159.78186l-20.283478 39.55905" fill-rule="evenodd"/><path stroke="#000000" stroke-width="3.0" stroke-linejoin="round" stroke-linecap="butt" d="m383.78134 159.78186l-20.283478 39.55905" fill-rule="evenodd"/><path fill="#000000" fill-opacity="0.0" d="m356.7892 215.28317l-12.283478 39.55905" fill-rule="evenodd"/><path stroke="#000000" stroke-width="3.0" stroke-linejoin="round" stroke-linecap="butt" d="m356.7892 215.28317l-12.283478 39.55905" fill-rule="evenodd"/><path fill="#000000" fill-opacity="0.0" d="m527.2108 159.78186l20.283447 39.55905" fill-rule="evenodd"/><path stroke="#000000" stroke-width="3.0" stroke-linejoin="round" stroke-linecap="butt" d="m527.2108 159.78186l20.283447 39.55905" fill-rule="evenodd"/><path fill="#000000" fill-opacity="0.0" d="m554.20294 215.28317l12.283447 39.55905" fill-rule="evenodd"/><path stroke="#000000" stroke-width="3.0" stroke-linejoin="round" stroke-linecap="butt" d="m554.20294 215.28317l12.283447 39.55905" fill-rule="evenodd"/><path fill="#000000" fill-opacity="0.0" d="m448.78134 215.28317l-32.566925 42.299194" fill-rule="evenodd"/><path stroke="#000000" stroke-width="3.0" stroke-linejoin="round" stroke-linecap="butt" d="m448.78134 215.28317l-32.566925 42.299194" fill-rule="evenodd"/><path fill="#000000" fill-opacity="0.0" d="m462.2108 215.28317l32.566925 42.299194" fill-rule="evenodd"/><path stroke="#000000" stroke-width="3.0" stroke-linejoin="round" stroke-linecap="butt" d="m462.2108 215.28317l32.566925 42.299194" fill-rule="evenodd"/><path fill="#000000" fill-opacity="0.0" d="m508.21866 270.7845l12.283478 35.55905" fill-rule="evenodd"/><path stroke="#000000" stroke-width="3.0" stroke-linejoin="round" stroke-linecap="butt" d="m508.21866 270.7845l12.283478 35.55905" fill-rule="evenodd"/><path fill="#000000" fill-opacity="0.0" d="m527.2108 322.2858l12.283447 48.566925" fill-rule="evenodd"/><path stroke="#000000" stroke-width="3.0" stroke-linejoin="round" stroke-linecap="butt" d="m527.2108 322.2858l12.283447 48.566925" fill-rule="evenodd"/><path fill="#000000" fill-opacity="0.0" d="m402.77347 270.7845l-12.283478 35.55905" fill-rule="evenodd"/><path stroke="#000000" stroke-width="3.0" stroke-linejoin="round" stroke-linecap="butt" d="m402.77347 270.7845l-12.283478 35.55905" fill-rule="evenodd"/><path fill="#000000" fill-opacity="0.0" d="m383.78134 322.2858l-12.283478 48.566925" fill-rule="evenodd"/><path stroke="#000000" stroke-width="3.0" stroke-linejoin="round" stroke-linecap="butt" d="m383.78134 322.2858l-12.283478 48.566925" fill-rule="evenodd"/><path fill="#000000" fill-opacity="0.0" d="m418.98425 264.1811l73.03937 0" fill-rule="evenodd"/><path stroke="#000000" stroke-width="3.0" stroke-linejoin="round" stroke-linecap="butt" d="m418.98425 264.1811l73.03937 0" fill-rule="evenodd"/><path fill="#000000" fill-opacity="0.0" d="m459.4987 74.50131l26.992126 0l0 32.503937l-26.992126 0z" fill-rule="evenodd"/><path fill="#000000" d="m474.54556 94.00569l0 1.015625l-5.6875 0q0 -0.375 0.125 -0.734375q0.21875 -0.578125 0.6875 -1.140625q0.484375 -0.5625 1.390625 -1.296875q1.40625 -1.15625 1.890625 -1.828125q0.5 -0.671875 0.5 -1.265625q0 -0.625 -0.453125 -1.046875q-0.453125 -0.4375 -1.171875 -0.4375q-0.765625 0 -1.21875 0.453125q-0.453125 0.453125 -0.46875 1.265625l-1.078125 -0.109375q0.109375 -1.21875 0.828125 -1.84375q0.734375 -0.640625 1.96875 -0.640625q1.234375 0 1.953125 0.6875q0.71875 0.6875 0.71875 1.703125q0 0.515625 -0.21875 1.015625q-0.203125 0.484375 -0.703125 1.046875q-0.484375 0.546875 -1.609375 1.5q-0.953125 0.796875 -1.234375 1.09375q-0.265625 0.28125 -0.4375 0.5625l4.21875 0z" fill-rule="nonzero"/><path fill="#000000" fill-opacity="0.0" d="m455.49606 123.50131l39.275604 0l0 32.503937l-39.275604 0z" fill-rule="evenodd"/><path fill="#000000" d="m468.9648 144.02132l-1.046875 0l0 -6.71875q-0.390625 0.359375 -1.015625 0.734375q-0.609375 0.359375 -1.09375 0.53125l0 -1.015625q0.875 -0.421875 1.53125 -1.0q0.671875 -0.59375 0.953125 -1.15625l0.671875 0l0 8.625zm2.7050781 -2.25l1.109375 -0.09375q0.125 0.8125 0.5625 1.21875q0.453125 0.40625 1.09375 0.40625q0.75 0 1.28125 -0.578125q0.53125 -0.578125 0.53125 -1.515625q0 -0.90625 -0.515625 -1.421875q-0.5 -0.53125 -1.328125 -0.53125q-0.5 0 -0.921875 0.234375q-0.40625 0.234375 -0.640625 0.59375l-0.984375 -0.125l0.828125 -4.40625l4.28125 0l0 1.0l-3.4375 0l-0.453125 2.3125q0.765625 -0.546875 1.609375 -0.546875q1.125 0 1.890625 0.78125q0.78125 0.78125 0.78125 2.015625q0 1.15625 -0.671875 2.015625q-0.828125 1.03125 -2.25 1.03125q-1.171875 0 -1.921875 -0.65625q-0.734375 -0.65625 -0.84375 -1.734375z" fill-rule="nonzero"/><path fill="#000000" fill-opacity="0.0" d="m520.50134 130.01312l39.275574 0l0 32.503937l-39.275574 0z" fill-rule="evenodd"/><path fill="#000000" d="m530.00134 146.29875q0 -1.53125 0.3125 -2.453125q0.3125 -0.9375 0.921875 -1.4375q0.625 -0.5 1.5625 -0.5q0.6875 0 1.203125 0.28125q0.53125 0.28125 0.875 0.8125q0.34375 0.515625 0.53125 1.265625q0.1875 0.75 0.1875 2.03125q0 1.515625 -0.3125 2.4375q-0.296875 0.921875 -0.921875 1.4375q-0.609375 0.5 -1.5625 0.5q-1.234375 0 -1.953125 -0.890625q-0.84375 -1.0625 -0.84375 -3.484375zm1.078125 0q0 2.109375 0.5 2.8125q0.5 0.703125 1.21875 0.703125q0.734375 0 1.21875 -0.703125q0.5 -0.703125 0.5 -2.8125q0 -2.125 -0.5 -2.8125q-0.484375 -0.703125 -1.234375 -0.703125q-0.71875 0 -1.15625 0.609375q-0.546875 0.78125 -0.546875 2.90625z" fill-rule="nonzero"/><path fill="#000000" fill-opacity="0.0" d="m543.4934 177.51443l39.275635 0l0 32.503937l-39.275635 0z" fill-rule="evenodd"/><path fill="#000000" d="m553.0559 190.56569l0 -1.015625l5.5625 0l0 0.828125q-0.8125 0.875 -1.625 2.328125q-0.796875 1.4375 -1.234375 2.96875q-0.328125 1.078125 -0.40625 2.359375l-1.09375 0q0.015625 -1.015625 0.390625 -2.453125q0.390625 -1.4375 1.09375 -2.765625q0.71875 -1.328125 1.53125 -2.25l-4.21875 0z" fill-rule="nonzero"/><path fill="#000000" fill-opacity="0.0" d="m567.49603 235.50131l39.275635 0l0 32.503937l-39.275635 0z" fill-rule="evenodd"/><path fill="#000000" d="m577.1523 254.03694l1.015625 -0.09375q0.125 0.71875 0.484375 1.046875q0.375 0.3125 0.9375 0.3125q0.484375 0 0.84375 -0.21875q0.375 -0.234375 0.609375 -0.59375q0.234375 -0.375 0.390625 -1.0q0.15625 -0.640625 0.15625 -1.296875q0 -0.078125 0 -0.21875q-0.3125 0.5 -0.859375 0.828125q-0.546875 0.3125 -1.1875 0.3125q-1.078125 0 -1.8125 -0.765625q-0.734375 -0.78125 -0.734375 -2.046875q0 -1.3125 0.765625 -2.109375q0.78125 -0.796875 1.9375 -0.796875q0.828125 0 1.515625 0.453125q0.703125 0.453125 1.0625 1.296875q0.359375 0.828125 0.359375 2.40625q0 1.640625 -0.359375 2.625q-0.34375 0.96875 -1.0625 1.484375q-0.703125 0.49998474 -1.640625 0.49998474q-1.015625 0 -1.65625 -0.54685974q-0.640625 -0.5625 -0.765625 -1.578125zm4.3125 -3.796875q0 -0.90625 -0.484375 -1.4375q-0.46875 -0.53125 -1.15625 -0.53125q-0.703125 0 -1.234375 0.578125q-0.515625 0.5625 -0.515625 1.484375q0 0.8125 0.5 1.328125q0.5 0.515625 1.21875 0.515625q0.734375 0 1.203125 -0.515625q0.46875 -0.515625 0.46875 -1.421875z" fill-rule="nonzero"/><path fill="#000000" fill-opacity="0.0" d="m366.00262 123.50131l39.275604 0l0 32.503937l-39.275604 0z" fill-rule="evenodd"/><path fill="#000000" d="m379.47137 144.02132l-1.046875 0l0 -6.71875q-0.390625 0.359375 -1.015625 0.734375q-0.609375 0.359375 -1.09375 0.53125l0 -1.015625q0.875 -0.421875 1.53125 -1.0q0.671875 -0.59375 0.953125 -1.15625l0.671875 0l0 8.625z" fill-rule="nonzero"/><path fill="#000000" fill-opacity="0.0" d="m333.7244 177.51443l39.275604 0l0 32.503937l-39.275604 0z" fill-rule="evenodd"/><path fill="#000000" d="m344.8494 193.37819q-0.65625 -0.25 -0.984375 -0.6875q-0.3125 -0.453125 -0.3125 -1.0625q0 -0.9375 0.671875 -1.578125q0.6875 -0.640625 1.796875 -0.640625q1.125 0 1.8125 0.65625q0.6875 0.65625 0.6875 1.59375q0 0.59375 -0.3125 1.03125q-0.3125 0.4375 -0.953125 0.6875q0.796875 0.25 1.203125 0.828125q0.40625 0.578125 0.40625 1.375q0 1.09375 -0.78125 1.84375q-0.765625 0.75 -2.046875 0.75q-1.265625 0 -2.046875 -0.75q-0.78125 -0.75 -0.78125 -1.875q0 -0.84375 0.421875 -1.40625q0.4375 -0.5625 1.21875 -0.765625zm-0.21875 -1.796875q0 0.609375 0.390625 1.0q0.40625 0.390625 1.03125 0.390625q0.609375 0 1.0 -0.375q0.390625 -0.390625 0.390625 -0.953125q0 -0.578125 -0.40625 -0.96875q-0.40625 -0.40625 -1.0 -0.40625q-0.609375 0 -1.015625 0.390625q-0.390625 0.390625 -0.390625 0.921875zm-0.328125 3.96875q0 0.453125 0.203125 0.875q0.21875 0.421875 0.640625 0.65625q0.421875 0.234375 0.90625 0.234375q0.75 0 1.234375 -0.484375q0.5 -0.484375 0.5 -1.234375q0 -0.765625 -0.5 -1.265625q-0.5 -0.5 -1.265625 -0.5q-0.75 0 -1.234375 0.5q-0.484375 0.484375 -0.484375 1.21875z" fill-rule="nonzero"/><path fill="#000000" fill-opacity="0.0" d="m309.4908 238.28084l39.275604 0l0 32.503952l-39.275604 0z" fill-rule="evenodd"/><path fill="#000000" d="m322.95956 258.80084l-1.046875 0l0 -6.71875q-0.390625 0.359375 -1.015625 0.734375q-0.609375 0.359375 -1.09375 0.53125l0 -1.015625q0.875 -0.421875 1.53125 -1.0q0.671875 -0.59375 0.953125 -1.15625l0.671875 0l0 8.625zm2.7050781 -4.234375q0 -1.53125 0.3125 -2.453125q0.3125 -0.9375 0.921875 -1.4375q0.625 -0.5 1.5625 -0.5q0.6875 0 1.203125 0.28125q0.53125 0.28125 0.875 0.8125q0.34375 0.515625 0.53125 1.265625q0.1875 0.75 0.1875 2.03125q0 1.515625 -0.3125 2.4375q-0.296875 0.921875 -0.921875 1.4375q-0.609375 0.5 -1.5625 0.5q-1.234375 0 -1.953125 -0.890625q-0.84375 -1.0625 -0.84375 -3.484375zm1.078125 0q0 2.109375 0.5 2.8125q0.5 0.703125 1.21875 0.703125q0.734375 0 1.21875 -0.703125q0.5 -0.703125 0.5 -2.8125q0 -2.125 -0.5 -2.8125q-0.484375 -0.703125 -1.234375 -0.703125q-0.71875 0 -1.15625 0.609375q-0.546875 0.78125 -0.546875 2.90625z" fill-rule="nonzero"/><path fill="#000000" fill-opacity="0.0" d="m462.22308 192.42783l39.275604 0l0 32.503937l-39.275604 0z" fill-rule="evenodd"/><path fill="#000000" d="m471.72308 210.68219l1.0625 -0.140625q0.171875 0.890625 0.609375 1.296875q0.4375 0.390625 1.0625 0.390625q0.75 0 1.265625 -0.515625q0.515625 -0.515625 0.515625 -1.28125q0 -0.71875 -0.484375 -1.1875q-0.46875 -0.484375 -1.203125 -0.484375q-0.296875 0 -0.75 0.125l0.125 -0.9375q0.109375 0.015625 0.171875 0.015625q0.671875 0 1.203125 -0.34375q0.546875 -0.359375 0.546875 -1.09375q0 -0.578125 -0.390625 -0.953125q-0.390625 -0.390625 -1.015625 -0.390625q-0.609375 0 -1.03125 0.390625q-0.40625 0.390625 -0.515625 1.15625l-1.0625 -0.1875q0.1875 -1.046875 0.875 -1.625q0.6875 -0.59375 1.703125 -0.59375q0.703125 0 1.296875 0.3125q0.59375 0.296875 0.90625 0.8125q0.3125 0.515625 0.3125 1.109375q0 0.546875 -0.296875 1.015625q-0.296875 0.453125 -0.875 0.71875q0.75 0.171875 1.171875 0.734375q0.421875 0.546875 0.421875 1.390625q0 1.125 -0.828125 1.90625q-0.8125 0.78125 -2.0625 0.78125q-1.125 0 -1.875 -0.671875q-0.75 -0.6875 -0.859375 -1.75z" fill-rule="nonzero"/><path fill="#000000" fill-opacity="0.0" d="m383.78217 229.0l39.275574 0l0 32.503937l-39.275574 0z" fill-rule="evenodd"/><path fill="#000000" d="m396.65717 249.52l0 -2.0625l-3.71875 0l0 -0.96875l3.921875 -5.5625l0.859375 0l0 5.5625l1.15625 0l0 0.96875l-1.15625 0l0 2.0625l-1.0625 0zm0 -3.03125l0 -3.859375l-2.6875 3.859375l2.6875 0z" fill-rule="nonzero"/><path fill="#000000" fill-opacity="0.0" d="m494.72046 226.14961l39.275574 0l0 32.50392l-39.275574 0z" fill-rule="evenodd"/><path fill="#000000" d="m504.22046 244.4196l1.109375 -0.09375q0.125 0.8125 0.5625 1.21875q0.453125 0.40625 1.09375 0.40625q0.75 0 1.28125 -0.578125q0.53125 -0.578125 0.53125 -1.515625q0 -0.90625 -0.515625 -1.421875q-0.5 -0.53125 -1.328125 -0.53125q-0.5 0 -0.921875 0.234375q-0.40625 0.234375 -0.640625 0.59375l-0.984375 -0.125l0.828125 -4.40625l4.28125 0l0 1.0l-3.4375 0l-0.453125 2.3125q0.765625 -0.546875 1.609375 -0.546875q1.125 0 1.890625 0.78125q0.78125 0.78125 0.78125 2.015625q0 1.15625 -0.671875 2.015625q-0.828125 1.03125 -2.25 1.03125q-1.171875 0 -1.921875 -0.65625q-0.734375 -0.65625 -0.84375 -1.734375z" fill-rule="nonzero"/><path fill="#000000" fill-opacity="0.0" d="m359.86615 284.51706l39.275574 0l0 32.503937l-39.275574 0z" fill-rule="evenodd"/><path fill="#000000" d="m373.3349 305.03705l-1.046875 0l0 -6.71875q-0.390625 0.359375 -1.015625 0.734375q-0.609375 0.359375 -1.09375 0.53125l0 -1.015625q0.875 -0.421875 1.53125 -1.0q0.671875 -0.59375 0.953125 -1.15625l0.671875 0l0 8.625zm8.251953 -1.015625l0 1.015625l-5.6875 0q0 -0.375 0.125 -0.734375q0.21875 -0.578125 0.6875 -1.140625q0.484375 -0.5625 1.390625 -1.296875q1.40625 -1.15625 1.890625 -1.828125q0.5 -0.671875 0.5 -1.265625q0 -0.625 -0.453125 -1.046875q-0.453125 -0.4375 -1.171875 -0.4375q-0.765625 0 -1.21875 0.453125q-0.453125 0.453125 -0.46875 1.265625l-1.078125 -0.109375q0.109375 -1.21875 0.828125 -1.84375q0.734375 -0.640625 1.96875 -0.640625q1.234375 0 1.953125 0.6875q0.71875 0.6875 0.71875 1.703125q0 0.515625 -0.21875 1.015625q-0.203125 0.484375 -0.703125 1.046875q-0.484375 0.546875 -1.609375 1.5q-0.953125 0.796875 -1.234375 1.09375q-0.265625 0.28125 -0.4375 0.5625l4.21875 0z" fill-rule="nonzero"/><path fill="#000000" fill-opacity="0.0" d="m527.8504 289.78217l39.275574 0l0 32.503937l-39.275574 0z" fill-rule="evenodd"/><path fill="#000000" d="m541.31915 310.30215l-1.046875 0l0 -6.71875q-0.390625 0.359375 -1.015625 0.734375q-0.609375 0.359375 -1.09375 0.53125l0 -1.015625q0.875 -0.421875 1.53125 -1.0q0.671875 -0.59375 0.953125 -1.15625l0.671875 0l0 8.625zm5.783203 0l-1.046875 0l0 -6.71875q-0.390625 0.359375 -1.015625 0.734375q-0.609375 0.359375 -1.09375 0.53125l0 -1.015625q0.875 -0.421875 1.53125 -1.0q0.671875 -0.59375 0.953125 -1.15625l0.671875 0l0 8.625z" fill-rule="nonzero"/><path fill="#000000" fill-opacity="0.0" d="m339.0105 347.5013l39.275604 0l0 32.503937l-39.275604 0z" fill-rule="evenodd"/><path fill="#000000" d="m352.47925 368.0213l-1.046875 0l0 -6.71875q-0.390625 0.359375 -1.015625 0.734375q-0.609375 0.359375 -1.09375 0.53125l0 -1.015625q0.875 -0.421875 1.53125 -1.0q0.671875 -0.59375 0.953125 -1.15625l0.671875 0l0 8.625zm6.080078 0l0 -2.0625l-3.71875 0l0 -0.96875l3.921875 -5.5625l0.859375 0l0 5.5625l1.15625 0l0 0.96875l-1.15625 0l0 2.0625l-1.0625 0zm0 -3.03125l0 -3.859375l-2.6875 3.859375l2.6875 0z" fill-rule="nonzero"/><path fill="#000000" fill-opacity="0.0" d="m537.9921 350.5013l39.275574 0l0 32.503937l-39.275574 0z" fill-rule="evenodd"/><path fill="#000000" d="m551.4609 371.0213l-1.046875 0l0 -6.71875q-0.390625 0.359375 -1.015625 0.734375q-0.609375 0.359375 -1.09375 0.53125l0 -1.015625q0.875 -0.421875 1.53125 -1.0q0.671875 -0.59375 0.953125 -1.15625l0.671875 0l0 8.625zm2.7050781 -2.265625l1.0625 -0.140625q0.171875 0.890625 0.609375 1.296875q0.4375 0.390625 1.0625 0.390625q0.75 0 1.265625 -0.515625q0.515625 -0.515625 0.515625 -1.28125q0 -0.71875 -0.484375 -1.1875q-0.46875 -0.484375 -1.203125 -0.484375q-0.296875 0 -0.75 0.125l0.125 -0.9375q0.109375 0.015625 0.171875 0.015625q0.671875 0 1.203125 -0.34375q0.546875 -0.359375 0.546875 -1.09375q0 -0.578125 -0.390625 -0.953125q-0.390625 -0.390625 -1.015625 -0.390625q-0.609375 0 -1.03125 0.390625q-0.40625 0.390625 -0.515625 1.15625l-1.0625 -0.1875q0.1875 -1.046875 0.875 -1.625q0.6875 -0.59375 1.703125 -0.59375q0.703125 0 1.296875 0.3125q0.59375 0.296875 0.90625 0.8125q0.3125 0.515625 0.3125 1.109375q0 0.546875 -0.296875 1.015625q-0.296875 0.453125 -0.875 0.71875q0.75 0.171875 1.171875 0.734375q0.421875 0.546875 0.421875 1.390625q0 1.125 -0.828125 1.90625q-0.8125 0.78125 -2.0625 0.78125q-1.125 0 -1.875 -0.671875q-0.75 -0.6875 -0.859375 -1.75z" fill-rule="nonzero"/></g></svg>